solid Onshape
  facet normal 0.5 -0.707107 0.5
    outer loop
      vertex 18.2037 -43.6132 0
      vertex 54.7723 -17.7554 0
      vertex -2.23643e-15 -43.6132 18.2037
    endloop
  endfacet
  facet normal 0.5 -0.707107 0.5
    outer loop
      vertex 54.7723 -17.7554 0
      vertex 54.7723 -3.61325 20
      vertex -2.23643e-15 -43.6132 18.2037
    endloop
  endfacet
  facet normal 0.5 -0.707107 0.5
    outer loop
      vertex -2.23643e-15 -43.6132 18.2037
      vertex 54.7723 -3.61325 20
      vertex 0 -3.61325 74.7723
    endloop
  endfacet
  facet normal -0.5 -0.707107 0.5
    outer loop
      vertex -54.7723 -3.61325 20
      vertex -54.7723 -17.7554 0
      vertex 0 -3.61325 74.7723
    endloop
  endfacet
  facet normal -0.5 -0.707107 0.5
    outer loop
      vertex -54.7723 -17.7554 0
      vertex -18.2037 -43.6132 0
      vertex 0 -3.61325 74.7723
    endloop
  endfacet
  facet normal -0.5 -0.707107 0.5
    outer loop
      vertex 0 -3.61325 74.7723
      vertex -18.2037 -43.6132 0
      vertex -2.23643e-15 -43.6132 18.2037
    endloop
  endfacet
  facet normal 0.5 0.707107 0.5
    outer loop
      vertex 54.7723 3.61325 20
      vertex 54.7723 17.7554 0
      vertex 0 3.61325 74.7723
    endloop
  endfacet
  facet normal 0.5 0.707107 0.5
    outer loop
      vertex 54.7723 17.7554 0
      vertex 18.2037 43.6132 0
      vertex 0 3.61325 74.7723
    endloop
  endfacet
  facet normal 0.5 0.707107 0.5
    outer loop
      vertex 0 3.61325 74.7723
      vertex 18.2037 43.6132 0
      vertex -2.73813e-15 43.6132 18.2037
    endloop
  endfacet
  facet normal -0.5 0.707107 0.5
    outer loop
      vertex -18.2037 43.6132 0
      vertex -54.7723 17.7554 0
      vertex -2.73813e-15 43.6132 18.2037
    endloop
  endfacet
  facet normal -0.5 0.707107 0.5
    outer loop
      vertex -54.7723 17.7554 0
      vertex -54.7723 3.61325 20
      vertex -2.73813e-15 43.6132 18.2037
    endloop
  endfacet
  facet normal -0.5 0.707107 0.5
    outer loop
      vertex -2.73813e-15 43.6132 18.2037
      vertex -54.7723 3.61325 20
      vertex 0 3.61325 74.7723
    endloop
  endfacet
  facet normal 0.707107 0 0.707107
    outer loop
      vertex 0 3.61325 74.7723
      vertex 0 -3.61325 74.7723
      vertex 54.7723 3.61325 20
    endloop
  endfacet
  facet normal 0.707107 0 0.707107
    outer loop
      vertex 0 -3.61325 74.7723
      vertex 54.7723 -3.61325 20
      vertex 54.7723 3.61325 20
    endloop
  endfacet
  facet normal 1 0 0
    outer loop
      vertex 54.7723 3.61325 20
      vertex 54.7723 -3.61325 20
      vertex 54.7723 17.7554 0
    endloop
  endfacet
  facet normal 1 0 0
    outer loop
      vertex 54.7723 -3.61325 20
      vertex 54.7723 -17.7554 0
      vertex 54.7723 17.7554 0
    endloop
  endfacet
  facet normal 0 -1 0
    outer loop
      vertex 18.2037 -43.6132 0
      vertex -2.23643e-15 -43.6132 18.2037
      vertex -18.2037 -43.6132 0
    endloop
  endfacet
  facet normal 0 1 0
    outer loop
      vertex -2.73813e-15 43.6132 18.2037
      vertex 18.2037 43.6132 0
      vertex -18.2037 43.6132 0
    endloop
  endfacet
  facet normal -1 0 0
    outer loop
      vertex -54.7723 17.7554 0
      vertex -54.7723 -17.7554 0
      vertex -54.7723 3.61325 20
    endloop
  endfacet
  facet normal -1 0 0
    outer loop
      vertex -54.7723 -17.7554 0
      vertex -54.7723 -3.61325 20
      vertex -54.7723 3.61325 20
    endloop
  endfacet
  facet normal 0 0 -1
    outer loop
      vertex -18.2037 -43.6132 0
      vertex -54.7723 -17.7554 0
      vertex -54.7723 17.7554 0
    endloop
  endfacet
  facet normal 0 0 -1
    outer loop
      vertex 18.2037 43.6132 0
      vertex 54.7723 17.7554 0
      vertex 54.7723 -17.7554 0
    endloop
  endfacet
  facet normal 0 0 -1
    outer loop
      vertex -54.7723 17.7554 0
      vertex -18.2037 43.6132 0
      vertex -18.2037 -43.6132 0
    endloop
  endfacet
  facet normal 0 0 -1
    outer loop
      vertex -18.2037 43.6132 0
      vertex 18.2037 43.6132 0
      vertex -18.2037 -43.6132 0
    endloop
  endfacet
  facet normal 0 0 -1
    outer loop
      vertex -18.2037 -43.6132 0
      vertex 18.2037 43.6132 0
      vertex 18.2037 -43.6132 0
    endloop
  endfacet
  facet normal 0 0 -1
    outer loop
      vertex 18.2037 43.6132 0
      vertex 54.7723 -17.7554 0
      vertex 18.2037 -43.6132 0
    endloop
  endfacet
  facet normal -0.707107 0 0.707107
    outer loop
      vertex -54.7723 3.61325 20
      vertex -54.7723 -3.61325 20
      vertex 0 3.61325 74.7723
    endloop
  endfacet
  facet normal -0.707107 0 0.707107
    outer loop
      vertex -54.7723 -3.61325 20
      vertex 0 -3.61325 74.7723
      vertex 0 3.61325 74.7723
    endloop
  endfacet
endsolid Onshape
