solid Onshape
  facet normal 0 0 -1
    outer loop
      vertex -54.7723 43.6132 0
      vertex 54.7723 43.6132 0
      vertex -54.7723 -43.6132 0
    endloop
  endfacet
  facet normal 0 0 -1
    outer loop
      vertex 54.7723 43.6132 0
      vertex 54.7723 -43.6132 0
      vertex -54.7723 -43.6132 0
    endloop
  endfacet
  facet normal 0 0 1
    outer loop
      vertex 54.7723 43.6132 25
      vertex -54.7723 43.6132 25
      vertex 54.7723 -43.6132 25
    endloop
  endfacet
  facet normal 0 0 1
    outer loop
      vertex -54.7723 43.6132 25
      vertex -54.7723 -43.6132 25
      vertex 54.7723 -43.6132 25
    endloop
  endfacet
  facet normal -1 0 0
    outer loop
      vertex -54.7723 -43.6132 25
      vertex -54.7723 43.6132 25
      vertex -54.7723 -43.6132 0
    endloop
  endfacet
  facet normal -1 0 0
    outer loop
      vertex -54.7723 43.6132 25
      vertex -54.7723 43.6132 0
      vertex -54.7723 -43.6132 0
    endloop
  endfacet
  facet normal 0 1 0
    outer loop
      vertex -54.7723 43.6132 25
      vertex 54.7723 43.6132 25
      vertex -54.7723 43.6132 0
    endloop
  endfacet
  facet normal 0 1 0
    outer loop
      vertex 54.7723 43.6132 25
      vertex 54.7723 43.6132 0
      vertex -54.7723 43.6132 0
    endloop
  endfacet
  facet normal 0 -1 0
    outer loop
      vertex 54.7723 -43.6132 25
      vertex -54.7723 -43.6132 25
      vertex 54.7723 -43.6132 0
    endloop
  endfacet
  facet normal 0 -1 0
    outer loop
      vertex -54.7723 -43.6132 25
      vertex -54.7723 -43.6132 0
      vertex 54.7723 -43.6132 0
    endloop
  endfacet
  facet normal 1 0 0
    outer loop
      vertex 54.7723 43.6132 25
      vertex 54.7723 -43.6132 25
      vertex 54.7723 43.6132 0
    endloop
  endfacet
  facet normal 1 0 0
    outer loop
      vertex 54.7723 -43.6132 25
      vertex 54.7723 -43.6132 0
      vertex 54.7723 43.6132 0
    endloop
  endfacet
endsolid Onshape
